<mxfile host="app.diagrams.net" agent="Mozilla/5.0 (Macintosh; Intel Mac OS X 10.15; rv:132.0) Gecko/20100101 Firefox/132.0" version="24.7.16">
  <diagram name="Seite-1" id="Hzk6gP0_Q_4xljlDnLUV">
    <mxGraphModel dx="1187" dy="706" grid="1" gridSize="10" guides="1" tooltips="1" connect="1" arrows="1" fold="1" page="1" pageScale="1" pageWidth="1169" pageHeight="827" math="0" shadow="0">
      <root>
        <mxCell id="0" />
        <mxCell id="1" parent="0" />
        <mxCell id="e-vz1Ooxtons14yA6yqk-11" style="edgeStyle=orthogonalEdgeStyle;rounded=0;orthogonalLoop=1;jettySize=auto;html=1;exitX=0.5;exitY=1;exitDx=0;exitDy=0;entryX=0.5;entryY=0;entryDx=0;entryDy=0;strokeWidth=2;" edge="1" parent="1" source="e-vz1Ooxtons14yA6yqk-1" target="e-vz1Ooxtons14yA6yqk-6">
          <mxGeometry relative="1" as="geometry" />
        </mxCell>
        <mxCell id="e-vz1Ooxtons14yA6yqk-40" value="HTTP" style="edgeLabel;html=1;align=center;verticalAlign=middle;resizable=0;points=[];" vertex="1" connectable="0" parent="e-vz1Ooxtons14yA6yqk-11">
          <mxGeometry x="-0.0143" y="3" relative="1" as="geometry">
            <mxPoint as="offset" />
          </mxGeometry>
        </mxCell>
        <mxCell id="e-vz1Ooxtons14yA6yqk-20" style="rounded=0;orthogonalLoop=1;jettySize=auto;html=1;exitX=1;exitY=0.75;exitDx=0;exitDy=0;entryX=0;entryY=0.5;entryDx=0;entryDy=0;strokeWidth=2;" edge="1" parent="1" source="e-vz1Ooxtons14yA6yqk-1" target="e-vz1Ooxtons14yA6yqk-18">
          <mxGeometry relative="1" as="geometry" />
        </mxCell>
        <mxCell id="e-vz1Ooxtons14yA6yqk-42" value="HTTP" style="edgeLabel;html=1;align=center;verticalAlign=middle;resizable=0;points=[];" vertex="1" connectable="0" parent="e-vz1Ooxtons14yA6yqk-20">
          <mxGeometry x="-0.0215" y="2" relative="1" as="geometry">
            <mxPoint as="offset" />
          </mxGeometry>
        </mxCell>
        <mxCell id="e-vz1Ooxtons14yA6yqk-29" style="rounded=0;orthogonalLoop=1;jettySize=auto;html=1;exitX=1;exitY=0.25;exitDx=0;exitDy=0;entryX=0;entryY=0.5;entryDx=0;entryDy=0;strokeWidth=2;" edge="1" parent="1" source="e-vz1Ooxtons14yA6yqk-1" target="e-vz1Ooxtons14yA6yqk-27">
          <mxGeometry relative="1" as="geometry" />
        </mxCell>
        <mxCell id="e-vz1Ooxtons14yA6yqk-43" value="HTTP" style="edgeLabel;html=1;align=center;verticalAlign=middle;resizable=0;points=[];" vertex="1" connectable="0" parent="e-vz1Ooxtons14yA6yqk-29">
          <mxGeometry x="-0.0305" y="-1" relative="1" as="geometry">
            <mxPoint as="offset" />
          </mxGeometry>
        </mxCell>
        <mxCell id="e-vz1Ooxtons14yA6yqk-32" style="edgeStyle=orthogonalEdgeStyle;rounded=0;orthogonalLoop=1;jettySize=auto;html=1;exitX=0.5;exitY=0;exitDx=0;exitDy=0;entryX=0.5;entryY=1;entryDx=0;entryDy=0;startArrow=classic;startFill=1;strokeWidth=2;" edge="1" parent="1" source="e-vz1Ooxtons14yA6yqk-1" target="e-vz1Ooxtons14yA6yqk-30">
          <mxGeometry relative="1" as="geometry" />
        </mxCell>
        <mxCell id="e-vz1Ooxtons14yA6yqk-38" value="Modbus over Ethernet" style="edgeLabel;html=1;align=center;verticalAlign=middle;resizable=0;points=[];" vertex="1" connectable="0" parent="e-vz1Ooxtons14yA6yqk-32">
          <mxGeometry x="-0.08" relative="1" as="geometry">
            <mxPoint as="offset" />
          </mxGeometry>
        </mxCell>
        <mxCell id="e-vz1Ooxtons14yA6yqk-1" value="ioBroker" style="rounded=1;whiteSpace=wrap;html=1;" vertex="1" parent="1">
          <mxGeometry x="400" y="260" width="120" height="60" as="geometry" />
        </mxCell>
        <mxCell id="e-vz1Ooxtons14yA6yqk-3" style="edgeStyle=orthogonalEdgeStyle;rounded=0;orthogonalLoop=1;jettySize=auto;html=1;exitX=1;exitY=0.5;exitDx=0;exitDy=0;exitPerimeter=0;entryX=0;entryY=0.5;entryDx=0;entryDy=0;startArrow=classic;startFill=1;strokeWidth=2;" edge="1" parent="1" source="e-vz1Ooxtons14yA6yqk-2" target="e-vz1Ooxtons14yA6yqk-1">
          <mxGeometry relative="1" as="geometry" />
        </mxCell>
        <mxCell id="e-vz1Ooxtons14yA6yqk-2" value="InfluxDB" style="shape=cylinder3;whiteSpace=wrap;html=1;boundedLbl=1;backgroundOutline=1;size=15;" vertex="1" parent="1">
          <mxGeometry x="270" y="250" width="60" height="80" as="geometry" />
        </mxCell>
        <mxCell id="e-vz1Ooxtons14yA6yqk-9" style="rounded=0;orthogonalLoop=1;jettySize=auto;html=1;exitX=0.5;exitY=0;exitDx=0;exitDy=0;entryX=0.25;entryY=1;entryDx=0;entryDy=0;strokeWidth=2;" edge="1" parent="1" source="e-vz1Ooxtons14yA6yqk-5" target="e-vz1Ooxtons14yA6yqk-1">
          <mxGeometry relative="1" as="geometry" />
        </mxCell>
        <mxCell id="e-vz1Ooxtons14yA6yqk-39" value="HTTP" style="edgeLabel;html=1;align=center;verticalAlign=middle;resizable=0;points=[];" vertex="1" connectable="0" parent="e-vz1Ooxtons14yA6yqk-9">
          <mxGeometry x="-0.1118" y="-2" relative="1" as="geometry">
            <mxPoint as="offset" />
          </mxGeometry>
        </mxCell>
        <mxCell id="e-vz1Ooxtons14yA6yqk-5" value="Shelly&lt;br&gt;EnergyMeter" style="shape=parallelogram;perimeter=parallelogramPerimeter;whiteSpace=wrap;html=1;fixedSize=1;" vertex="1" parent="1">
          <mxGeometry x="240" y="460" width="120" height="40" as="geometry" />
        </mxCell>
        <mxCell id="e-vz1Ooxtons14yA6yqk-6" value="Shelly&lt;br&gt;Relays" style="shape=parallelogram;perimeter=parallelogramPerimeter;whiteSpace=wrap;html=1;fixedSize=1;" vertex="1" parent="1">
          <mxGeometry x="400" y="460" width="120" height="40" as="geometry" />
        </mxCell>
        <mxCell id="e-vz1Ooxtons14yA6yqk-12" style="rounded=0;orthogonalLoop=1;jettySize=auto;html=1;exitX=0.5;exitY=0;exitDx=0;exitDy=0;entryX=0.75;entryY=1;entryDx=0;entryDy=0;strokeWidth=2;" edge="1" parent="1" source="e-vz1Ooxtons14yA6yqk-7" target="e-vz1Ooxtons14yA6yqk-1">
          <mxGeometry relative="1" as="geometry" />
        </mxCell>
        <mxCell id="e-vz1Ooxtons14yA6yqk-41" value="HTTP" style="edgeLabel;html=1;align=center;verticalAlign=middle;resizable=0;points=[];" vertex="1" connectable="0" parent="e-vz1Ooxtons14yA6yqk-12">
          <mxGeometry x="-0.0153" y="1" relative="1" as="geometry">
            <mxPoint as="offset" />
          </mxGeometry>
        </mxCell>
        <mxCell id="e-vz1Ooxtons14yA6yqk-7" value="&lt;div&gt;Shelly&lt;/div&gt;&lt;div&gt;Switches&lt;/div&gt;" style="shape=parallelogram;perimeter=parallelogramPerimeter;whiteSpace=wrap;html=1;fixedSize=1;" vertex="1" parent="1">
          <mxGeometry x="560" y="460" width="120" height="40" as="geometry" />
        </mxCell>
        <mxCell id="e-vz1Ooxtons14yA6yqk-13" value="&lt;div&gt;CANBUS-&lt;/div&gt;&lt;div&gt;Gateway&lt;br&gt;&lt;/div&gt;" style="rounded=1;whiteSpace=wrap;html=1;" vertex="1" parent="1">
          <mxGeometry x="680" y="260" width="120" height="60" as="geometry" />
        </mxCell>
        <mxCell id="e-vz1Ooxtons14yA6yqk-15" style="edgeStyle=orthogonalEdgeStyle;rounded=0;orthogonalLoop=1;jettySize=auto;html=1;exitX=1;exitY=0.5;exitDx=0;exitDy=0;entryX=0;entryY=0.5;entryDx=0;entryDy=0;startArrow=classic;startFill=1;strokeWidth=2;" edge="1" parent="1" source="e-vz1Ooxtons14yA6yqk-1" target="e-vz1Ooxtons14yA6yqk-13">
          <mxGeometry relative="1" as="geometry">
            <mxPoint x="350" y="300" as="sourcePoint" />
            <mxPoint x="410" y="300" as="targetPoint" />
          </mxGeometry>
        </mxCell>
        <mxCell id="e-vz1Ooxtons14yA6yqk-44" value="HTTP" style="edgeLabel;html=1;align=center;verticalAlign=middle;resizable=0;points=[];" vertex="1" connectable="0" parent="e-vz1Ooxtons14yA6yqk-15">
          <mxGeometry x="-0.0375" relative="1" as="geometry">
            <mxPoint as="offset" />
          </mxGeometry>
        </mxCell>
        <mxCell id="e-vz1Ooxtons14yA6yqk-24" style="edgeStyle=orthogonalEdgeStyle;rounded=0;orthogonalLoop=1;jettySize=auto;html=1;exitX=0.5;exitY=0;exitDx=0;exitDy=0;entryX=0.5;entryY=1;entryDx=0;entryDy=0;strokeWidth=2;fillColor=#e51400;strokeColor=#Ff0000;" edge="1" parent="1" source="e-vz1Ooxtons14yA6yqk-16" target="e-vz1Ooxtons14yA6yqk-23">
          <mxGeometry relative="1" as="geometry" />
        </mxCell>
        <mxCell id="e-vz1Ooxtons14yA6yqk-16" value="Hoval&lt;br&gt;Heatpump" style="rounded=1;whiteSpace=wrap;html=1;" vertex="1" parent="1">
          <mxGeometry x="840" y="260" width="120" height="60" as="geometry" />
        </mxCell>
        <mxCell id="e-vz1Ooxtons14yA6yqk-17" style="edgeStyle=orthogonalEdgeStyle;rounded=0;orthogonalLoop=1;jettySize=auto;html=1;exitX=1;exitY=0.5;exitDx=0;exitDy=0;entryX=0;entryY=0.5;entryDx=0;entryDy=0;startArrow=classic;startFill=1;strokeWidth=2;" edge="1" parent="1" source="e-vz1Ooxtons14yA6yqk-13" target="e-vz1Ooxtons14yA6yqk-16">
          <mxGeometry relative="1" as="geometry">
            <mxPoint x="530" y="300" as="sourcePoint" />
            <mxPoint x="690" y="300" as="targetPoint" />
          </mxGeometry>
        </mxCell>
        <mxCell id="e-vz1Ooxtons14yA6yqk-21" style="edgeStyle=orthogonalEdgeStyle;rounded=0;orthogonalLoop=1;jettySize=auto;html=1;exitX=1;exitY=0.5;exitDx=0;exitDy=0;entryX=0.5;entryY=1;entryDx=0;entryDy=0;strokeWidth=2;" edge="1" parent="1" source="e-vz1Ooxtons14yA6yqk-18" target="e-vz1Ooxtons14yA6yqk-16">
          <mxGeometry relative="1" as="geometry" />
        </mxCell>
        <mxCell id="e-vz1Ooxtons14yA6yqk-22" value="SmartGrid" style="edgeLabel;html=1;align=center;verticalAlign=middle;resizable=0;points=[];" vertex="1" connectable="0" parent="e-vz1Ooxtons14yA6yqk-21">
          <mxGeometry x="-0.3" y="-1" relative="1" as="geometry">
            <mxPoint x="41" y="-55" as="offset" />
          </mxGeometry>
        </mxCell>
        <mxCell id="e-vz1Ooxtons14yA6yqk-18" value="Shelly&lt;br&gt;2-Channel Relay" style="shape=parallelogram;perimeter=parallelogramPerimeter;whiteSpace=wrap;html=1;fixedSize=1;" vertex="1" parent="1">
          <mxGeometry x="680" y="380" width="120" height="40" as="geometry" />
        </mxCell>
        <mxCell id="e-vz1Ooxtons14yA6yqk-23" value="Household&lt;br&gt;Boiler" style="shape=hexagon;perimeter=hexagonPerimeter2;whiteSpace=wrap;html=1;fixedSize=1;" vertex="1" parent="1">
          <mxGeometry x="840" y="150" width="120" height="60" as="geometry" />
        </mxCell>
        <mxCell id="e-vz1Ooxtons14yA6yqk-25" value="Water &lt;br&gt;Buffer" style="shape=hexagon;perimeter=hexagonPerimeter2;whiteSpace=wrap;html=1;fixedSize=1;" vertex="1" parent="1">
          <mxGeometry x="1000" y="260" width="120" height="60" as="geometry" />
        </mxCell>
        <mxCell id="e-vz1Ooxtons14yA6yqk-26" style="edgeStyle=orthogonalEdgeStyle;rounded=0;orthogonalLoop=1;jettySize=auto;html=1;exitX=1;exitY=0.5;exitDx=0;exitDy=0;entryX=0;entryY=0.5;entryDx=0;entryDy=0;strokeWidth=2;fillColor=#e51400;strokeColor=#Ff0000;startArrow=classic;startFill=1;" edge="1" parent="1" source="e-vz1Ooxtons14yA6yqk-16" target="e-vz1Ooxtons14yA6yqk-25">
          <mxGeometry relative="1" as="geometry">
            <mxPoint x="910" y="270" as="sourcePoint" />
            <mxPoint x="910" y="230" as="targetPoint" />
          </mxGeometry>
        </mxCell>
        <mxCell id="e-vz1Ooxtons14yA6yqk-28" style="edgeStyle=orthogonalEdgeStyle;rounded=0;orthogonalLoop=1;jettySize=auto;html=1;exitX=1;exitY=0.5;exitDx=0;exitDy=0;entryX=0;entryY=0.5;entryDx=0;entryDy=0;strokeWidth=2;" edge="1" parent="1" source="e-vz1Ooxtons14yA6yqk-27" target="e-vz1Ooxtons14yA6yqk-23">
          <mxGeometry relative="1" as="geometry" />
        </mxCell>
        <mxCell id="e-vz1Ooxtons14yA6yqk-27" value="Shelly&lt;br&gt;3-Channel Relay" style="shape=parallelogram;perimeter=parallelogramPerimeter;whiteSpace=wrap;html=1;fixedSize=1;" vertex="1" parent="1">
          <mxGeometry x="680" y="160" width="120" height="40" as="geometry" />
        </mxCell>
        <mxCell id="e-vz1Ooxtons14yA6yqk-30" value="&lt;div&gt;Waveshare&lt;/div&gt;&lt;div&gt;Modbus&lt;br&gt;Gateway&lt;br&gt;&lt;/div&gt;" style="rounded=1;whiteSpace=wrap;html=1;" vertex="1" parent="1">
          <mxGeometry x="400" y="150" width="120" height="60" as="geometry" />
        </mxCell>
        <mxCell id="e-vz1Ooxtons14yA6yqk-31" value="Sungrow&lt;br&gt;Hybrid&lt;br&gt;Inverter" style="rounded=1;whiteSpace=wrap;html=1;" vertex="1" parent="1">
          <mxGeometry x="400" y="50" width="120" height="60" as="geometry" />
        </mxCell>
        <mxCell id="e-vz1Ooxtons14yA6yqk-33" style="edgeStyle=orthogonalEdgeStyle;rounded=0;orthogonalLoop=1;jettySize=auto;html=1;entryX=0.5;entryY=1;entryDx=0;entryDy=0;startArrow=classic;startFill=1;strokeWidth=2;" edge="1" parent="1" target="e-vz1Ooxtons14yA6yqk-31">
          <mxGeometry relative="1" as="geometry">
            <mxPoint x="460" y="150" as="sourcePoint" />
            <mxPoint x="470" y="220" as="targetPoint" />
          </mxGeometry>
        </mxCell>
        <mxCell id="e-vz1Ooxtons14yA6yqk-35" style="edgeStyle=orthogonalEdgeStyle;rounded=0;orthogonalLoop=1;jettySize=auto;html=1;exitX=1;exitY=0.5;exitDx=0;exitDy=0;entryX=0;entryY=0.5;entryDx=0;entryDy=0;strokeWidth=2;fillColor=#6a00ff;strokeColor=#3700CC;" edge="1" parent="1" source="e-vz1Ooxtons14yA6yqk-34" target="e-vz1Ooxtons14yA6yqk-31">
          <mxGeometry relative="1" as="geometry" />
        </mxCell>
        <mxCell id="e-vz1Ooxtons14yA6yqk-34" value="PV" style="shape=hexagon;perimeter=hexagonPerimeter2;whiteSpace=wrap;html=1;fixedSize=1;" vertex="1" parent="1">
          <mxGeometry x="240" y="50" width="120" height="60" as="geometry" />
        </mxCell>
        <mxCell id="e-vz1Ooxtons14yA6yqk-36" value="Battery" style="shape=hexagon;perimeter=hexagonPerimeter2;whiteSpace=wrap;html=1;fixedSize=1;" vertex="1" parent="1">
          <mxGeometry x="560" y="50" width="120" height="60" as="geometry" />
        </mxCell>
        <mxCell id="e-vz1Ooxtons14yA6yqk-37" style="edgeStyle=orthogonalEdgeStyle;rounded=0;orthogonalLoop=1;jettySize=auto;html=1;entryX=0;entryY=0.5;entryDx=0;entryDy=0;startArrow=classic;startFill=1;strokeWidth=2;exitX=1;exitY=0.5;exitDx=0;exitDy=0;fillColor=#6a00ff;strokeColor=#3700CC;" edge="1" parent="1" source="e-vz1Ooxtons14yA6yqk-31" target="e-vz1Ooxtons14yA6yqk-36">
          <mxGeometry relative="1" as="geometry">
            <mxPoint x="470" y="160" as="sourcePoint" />
            <mxPoint x="470" y="120" as="targetPoint" />
          </mxGeometry>
        </mxCell>
      </root>
    </mxGraphModel>
  </diagram>
</mxfile>
